<svg width="248" height="250" viewBox="0 0 248 250" fill="none" xmlns="http://www.w3.org/2000/svg" xmlns:xlink="http://www.w3.org/1999/xlink">
<mask id="mask_0_12_1047" style="mask-type:alpha" maskUnits="userSpaceOnUse" x="90.299072" y="82" width="25.978661" height="42.562065">
<path d="M92.084,82.473C89.678,83.146 89.693,83.874 92.199,88.081C95.036,92.844 99.18,95.257 103.385,94.593C108.693,93.756 108.759,93.776 110.339,96.661C111.168,98.175 112.051,100.677 112.301,102.22L112.754,105.027L108.054,105.866C105.47,106.328 102.897,107.02 102.338,107.405C101.587,107.92 101.772,107.974 103.041,107.61C103.987,107.339 106.696,106.916 109.061,106.67C113.353,106.222 120.427,106.678 123.681,107.61C124.95,107.974 125.134,107.92 124.384,107.405C123.824,107.02 121.323,106.341 118.825,105.894L114.283,105.082L114.801,101.799C115.323,98.499 116.934,94.677 118.11,93.951C118.457,93.737 120.288,93.918 122.179,94.355C125.319,95.08 125.908,95.005 128.949,93.497C131.491,92.237 132.812,90.953 134.523,88.081C135.756,86.011 136.661,84.003 136.534,83.621C136.103,82.329 130.682,81.747 126.728,82.568C123.87,83.161 122.236,84.02 120.099,86.053C116.904,89.093 116.956,90.381 120.178,87.999C121.339,87.141 122.453,86.605 122.655,86.807C122.858,87.01 121.921,87.916 120.572,88.822C118.325,90.333 114.049,95.774 114.049,97.123C114.049,98.507 112.89,97.464 111.434,94.769C110.565,93.161 108.488,90.774 106.821,89.465C103.247,86.658 103.274,85.868 106.87,88.089C109.363,89.63 109.385,89.632 108.616,88.196C106.192,83.665 97.985,80.825 92.084,82.473ZM119.897,110.077C119.663,110.456 119.972,110.765 120.585,110.765C121.197,110.765 121.507,110.456 121.273,110.077C121.039,109.699 120.729,109.389 120.585,109.389C120.44,109.389 120.131,109.699 119.897,110.077ZM124.626,112.294C126.042,113.471 126.661,114.667 126.808,116.515C126.92,117.933 127.367,119.521 127.8,120.043C128.461,120.839 128.805,120.777 129.919,119.663C130.65,118.932 131.713,118.333 132.28,118.333C132.848,118.333 133.312,118.077 133.312,117.765C133.312,116.493 127.165,111.941 124.369,111.143C122.675,110.659 122.678,110.676 124.626,112.294ZM116.563,111.92C116.367,112.116 116.391,112.752 116.614,113.334C116.887,114.048 116.704,114.278 116.05,114.041C115.517,113.847 115.158,113.341 115.253,112.915C115.347,112.489 115.115,112.141 114.737,112.141C114.358,112.141 114.049,112.641 114.049,113.252C114.049,114.184 113.527,114.285 110.781,113.882C108.983,113.62 107.218,113.12 106.859,112.773C105.944,111.888 99.818,111.984 98.008,112.91C96.18,113.846 91.345,118.393 91.345,119.177C91.345,119.487 92.121,119.233 93.069,118.612C95.31,117.143 96.593,118.143 96.718,121.455C96.769,122.802 96.972,124.166 97.169,124.486C97.366,124.805 97.066,126.173 96.5,127.526C95.024,131.06 95.224,133 97.297,135.236C98.3,136.319 99.699,138.512 100.407,140.111C101.192,141.886 102.29,143.184 103.227,143.446C105.75,144.152 108.107,145.364 109.746,146.799C110.596,147.542 111.499,147.944 111.753,147.69C112.007,147.436 111.853,147.229 111.412,147.229C110.97,147.229 110.609,146.609 110.609,145.853C110.609,145.044 110.15,144.477 109.496,144.477C108.723,144.477 108.494,144.058 108.744,143.101C109.144,141.572 108.543,141.314 107.353,142.504C106.924,142.933 106.088,143.097 105.495,142.87C104.214,142.378 104.044,138.933 105.243,137.734C106.496,136.481 110.646,136.72 111.793,138.113C112.733,139.253 112.764,139.251 112.389,138.067C111.797,136.198 117.51,129.225 119.897,128.904C120.275,128.853 120.865,128.776 121.207,128.732C121.55,128.689 121.269,128.034 120.585,127.277C119.304,125.862 119.512,125.664 122.067,125.865C122.882,125.93 123.74,125.673 123.974,125.295C124.552,124.359 122.152,120.555 121.188,120.881C120.764,121.024 120.25,120.509 120.049,119.737C119.595,118.004 117.489,117.868 117.489,119.572C117.489,121.419 115.888,124.513 114.93,124.52C114.469,124.522 114.262,124.081 114.47,123.54C114.711,122.914 114.059,122.146 112.686,121.436C109.653,119.867 110.238,118.45 115.034,115.754C118.656,113.717 119.22,113.578 120.14,114.498C121.059,115.417 121.043,115.58 119.998,115.982C118.902,116.402 118.905,116.493 120.049,117.36C121.71,118.621 122.541,118.564 122.027,117.225C121.716,116.417 121.895,116.229 122.684,116.531C123.523,116.853 123.447,116.498 122.349,114.956C121.011,113.076 117.335,111.148 116.563,111.92ZM124.025,127.277C124.259,127.655 124.586,127.965 124.753,127.965C124.92,127.965 125.057,127.655 125.057,127.277C125.057,126.899 124.728,126.589 124.328,126.589C123.928,126.589 123.791,126.899 124.025,127.277ZM139.743,131.402C139.172,133.542 139.2,134.157 139.87,134.157C140.964,134.157 141.789,130.989 141.043,129.656C140.633,128.924 140.276,129.404 139.743,131.402ZM140.428,135.406C138.229,136.821 136.704,143.132 137.842,146.099C138.16,146.927 138.577,146.995 139.836,146.421C141.566,145.633 142.256,143.398 142.256,138.583C142.256,135.532 141.709,134.581 140.428,135.406ZM113.82,147C113.567,147.251 113.361,148.029 113.361,148.728C113.361,149.427 112.979,150.611 112.512,151.358C111.812,152.479 111.89,153.137 112.957,155.119C113.668,156.439 114.845,157.709 115.573,157.94C116.767,158.318 116.85,158.794 116.425,162.77C115.901,167.656 116.368,168.154 119.11,165.632C120.036,164.781 122.52,162.536 124.631,160.644C126.742,158.753 128.475,156.919 128.483,156.571C128.49,156.222 128.991,155.39 129.596,154.722C131.023,153.145 130.441,152.305 127.548,151.762C126.023,151.476 125.085,150.85 124.853,149.963C124.651,149.19 123.913,148.605 123.141,148.605C122.395,148.605 121.4,148.14 120.929,147.573C120.065,146.532 114.717,146.101 113.82,147Z" clip-rule="evenodd" fill-rule="evenodd" fill="#000000"/>
</mask>
<g mask="url(#mask_0_12_1047)">
<rect  x="-0.846" y="0.687" width="248.364" height="248.364" fill="url(#pf_0_12_1048)"/>
</g>
<defs>
<linearGradient id="pf_0_12_1048" x1="123.337" y1="0.687" x2="123.337" y2="249.051" gradientUnits="userSpaceOnUse">
<stop stop-color="#FFFFFF"/>
<stop offset="1" stop-color="#FFFFFF"/>
</linearGradient>
</defs>
</svg>
