<svg width="26" height="16" viewBox="0 0 26 16" fill="none" xmlns="http://www.w3.org/2000/svg" xmlns:xlink="http://www.w3.org/1999/xlink">
<path d="M1.213,0.908C1.554,0.555 2.018,0.356 2.501,0.356C2.984,0.356 3.447,0.555 3.789,0.908L12.806,10.24L21.823,0.908C22.167,0.565 22.627,0.375 23.104,0.379C23.582,0.383 24.039,0.581 24.377,0.931C24.714,1.281 24.906,1.753 24.91,2.248C24.914,2.742 24.731,3.218 24.399,3.574L14.094,14.239C13.752,14.592 13.289,14.791 12.806,14.791C12.323,14.791 11.86,14.592 11.518,14.239L1.213,3.574C0.871,3.22 0.679,2.741 0.679,2.241C0.679,1.741 0.871,1.262 1.213,0.908Z" fill="#FFFFFF"/>
</svg>
