<svg width="26" height="16" viewBox="0 0 26 16" fill="none" xmlns="http://www.w3.org/2000/svg" xmlns:xlink="http://www.w3.org/1999/xlink">
<path d="M0.3,0.908C0.654,0.555 1.133,0.356 1.633,0.356C2.133,0.356 2.612,0.555 2.966,0.908L12.298,10.24L21.63,0.908C21.986,0.565 22.462,0.375 22.956,0.379C23.45,0.383 23.923,0.581 24.273,0.931C24.622,1.281 24.821,1.753 24.825,2.248C24.829,2.742 24.639,3.218 24.296,3.574L13.631,14.239C13.277,14.592 12.798,14.791 12.298,14.791C11.798,14.791 11.319,14.592 10.965,14.239L0.3,3.574C-0.053,3.22 -0.252,2.741 -0.252,2.241C-0.252,1.741 -0.053,1.262 0.3,0.908Z" fill="#FFFFFF"/>
</svg>
