<svg width="62" height="58" viewBox="0 0 62 58" fill="none" xmlns="http://www.w3.org/2000/svg" xmlns:xlink="http://www.w3.org/1999/xlink">
<path d="M20.599,4.139C22.576,4.139 24.51,4.725 26.154,5.824C27.799,6.923 29.081,8.485 29.837,10.312C30.594,12.139 30.792,14.15 30.406,16.09C30.021,18.029 29.068,19.811 27.67,21.21C26.271,22.608 24.489,23.561 22.55,23.947C20.61,24.333 18.599,24.134 16.772,23.378C14.945,22.621 13.383,21.339 12.284,19.694C11.185,18.05 10.599,16.117 10.599,14.139C10.599,11.487 11.652,8.943 13.528,7.068C15.403,5.192 17.946,4.139 20.599,4.139ZM20.599,0.139C17.83,0.139 15.123,0.96 12.821,2.498C10.518,4.036 8.724,6.223 7.664,8.781C6.605,11.339 6.327,14.154 6.868,16.87C7.408,19.586 8.741,22.08 10.699,24.038C12.657,25.996 15.152,27.33 17.867,27.87C20.583,28.41 23.398,28.133 25.956,27.073C28.514,26.013 30.701,24.219 32.239,21.917C33.778,19.614 34.599,16.908 34.599,14.139C34.599,10.426 33.124,6.865 30.498,4.239C27.873,1.614 24.312,0.139 20.599,0.139ZM40.599,56.139L36.599,56.139L36.599,46.139C36.599,43.487 35.545,40.943 33.67,39.068C31.794,37.192 29.251,36.139 26.599,36.139L14.599,36.139C11.946,36.139 9.403,37.192 7.528,39.068C5.652,40.943 4.599,43.487 4.599,46.139L4.599,56.139L0.599,56.139L0.599,46.139C0.599,42.426 2.074,38.865 4.699,36.239C7.325,33.614 10.886,32.139 14.599,32.139L26.599,32.139C30.312,32.139 33.873,33.614 36.498,36.239C39.124,38.865 40.599,42.426 40.599,46.139L40.599,56.139ZM40.599,4.139L60.599,4.139L60.599,8.139L40.599,8.139L40.599,4.139ZM40.599,14.139L60.599,14.139L60.599,18.139L40.599,18.139L40.599,14.139ZM40.599,24.139L54.599,24.139L54.599,28.139L40.599,28.139L40.599,24.139Z" fill="#FFFFFF"/>
</svg>
