<svg width="48" height="48" viewBox="0 0 48 48" fill="none" xmlns="http://www.w3.org/2000/svg" xmlns:xlink="http://www.w3.org/1999/xlink">
<path d="M21.83,0.321C18.496,0.322 15.21,1.119 12.247,2.648C9.283,4.176 6.728,6.391 4.795,9.108C2.862,11.824 1.606,14.964 1.133,18.265C0.66,21.565 0.983,24.931 2.076,28.081C3.168,31.232 4.998,34.075 7.413,36.374C9.827,38.674 12.757,40.362 15.957,41.299C19.157,42.236 22.534,42.394 25.808,41.76C29.081,41.126 32.156,39.718 34.775,37.654L43.758,46.638C44.222,47.086 44.844,47.334 45.489,47.329C46.134,47.323 46.751,47.064 47.207,46.608C47.663,46.152 47.922,45.535 47.927,44.89C47.933,44.245 47.685,43.624 47.237,43.16L38.253,34.176C40.683,31.092 42.197,27.387 42.62,23.484C43.043,19.581 42.358,15.637 40.645,12.105C38.931,8.572 36.258,5.594 32.93,3.51C29.603,1.426 25.756,0.321 21.83,0.321ZM5.84,21.231C5.84,16.99 7.525,12.923 10.523,9.925C13.522,6.926 17.589,5.241 21.83,5.241C26.071,5.241 30.138,6.926 33.137,9.925C36.135,12.923 37.82,16.99 37.82,21.231C37.82,25.472 36.135,29.539 33.137,32.538C30.138,35.537 26.071,37.221 21.83,37.221C17.589,37.221 13.522,35.537 10.523,32.538C7.525,29.539 5.84,25.472 5.84,21.231Z" clip-rule="evenodd" fill-rule="evenodd" fill="#FFFFFF"/>
</svg>
