<svg width="62" height="58" viewBox="0 0 62 58" fill="none" xmlns="http://www.w3.org/2000/svg" xmlns:xlink="http://www.w3.org/1999/xlink">
<path d="M20.923,4.139C22.901,4.139 24.834,4.725 26.479,5.824C28.123,6.923 29.405,8.485 30.162,10.312C30.918,12.139 31.117,14.15 30.731,16.09C30.345,18.029 29.392,19.811 27.994,21.21C26.595,22.608 24.814,23.561 22.874,23.947C20.934,24.333 18.923,24.134 17.096,23.378C15.269,22.621 13.707,21.339 12.608,19.694C11.509,18.05 10.923,16.117 10.923,14.139C10.923,11.487 11.976,8.943 13.852,7.068C15.727,5.192 18.271,4.139 20.923,4.139ZM20.923,0.139C18.154,0.139 15.447,0.96 13.145,2.498C10.843,4.036 9.048,6.223 7.989,8.781C6.929,11.339 6.652,14.154 7.192,16.87C7.732,19.586 9.065,22.08 11.023,24.038C12.981,25.996 15.476,27.33 18.192,27.87C20.907,28.41 23.722,28.133 26.28,27.073C28.839,26.013 31.025,24.219 32.563,21.917C34.102,19.614 34.923,16.908 34.923,14.139C34.923,10.426 33.448,6.865 30.822,4.239C28.197,1.614 24.636,0.139 20.923,0.139ZM40.923,56.139L36.923,56.139L36.923,46.139C36.923,43.487 35.869,40.943 33.994,39.068C32.119,37.192 29.575,36.139 26.923,36.139L14.923,36.139C12.271,36.139 9.727,37.192 7.852,39.068C5.976,40.943 4.923,43.487 4.923,46.139L4.923,56.139L0.923,56.139L0.923,46.139C0.923,42.426 2.398,38.865 5.023,36.239C7.649,33.614 11.21,32.139 14.923,32.139L26.923,32.139C30.636,32.139 34.197,33.614 36.822,36.239C39.448,38.865 40.923,42.426 40.923,46.139L40.923,56.139ZM40.923,4.139L60.923,4.139L60.923,8.139L40.923,8.139L40.923,4.139ZM40.923,14.139L60.923,14.139L60.923,18.139L40.923,18.139L40.923,14.139ZM40.923,24.139L54.923,24.139L54.923,28.139L40.923,28.139L40.923,24.139Z" fill="#FFFFFF"/>
</svg>
