<svg width="20" height="16" viewBox="0 0 20 16" fill="none" xmlns="http://www.w3.org/2000/svg" xmlns:xlink="http://www.w3.org/1999/xlink">
<path d="M-0.142,1.473C0.138,1.12 0.518,0.921 0.914,0.921C1.31,0.921 1.69,1.12 1.97,1.473L9.364,10.805L16.758,1.473C17.04,1.13 17.417,0.94 17.809,0.944C18.2,0.948 18.575,1.147 18.852,1.496C19.129,1.846 19.286,2.319 19.289,2.813C19.293,3.307 19.142,3.784 18.87,4.139L10.42,14.804C10.14,15.158 9.76,15.356 9.364,15.356C8.968,15.356 8.588,15.158 8.308,14.804L-0.142,4.139C-0.422,3.786 -0.579,3.306 -0.579,2.806C-0.579,2.306 -0.422,1.827 -0.142,1.473Z" fill="#FFFFFF"/>
</svg>
